<?xml version="1.0" encoding="utf-8"?>
<!-- Generator: Adobe Illustrator 15.0.0, SVG Export Plug-In . SVG Version: 6.00 Build 0)  -->
<!DOCTYPE svg PUBLIC "-//W3C//DTD SVG 1.1//EN" "http://www.w3.org/Graphics/SVG/1.1/DTD/svg11.dtd">
<svg version="1.1" id="Layer_1" xmlns="http://www.w3.org/2000/svg" xmlns:xlink="http://www.w3.org/1999/xlink" x="0px" y="0px"
	 width="850px" height="200px" viewBox="0 0 850 200" enable-background="new 0 0 850 200" xml:space="preserve">
<g>
	<g>
		<g>
			<polygon fill="#F7D64F" points="90.148,77.079 20,91.108 20,63.049 90.148,49.02 			"/>
		</g>
		<g>
			<polygon fill="#F99D27" points="90.148,107.009 20,121.038 20,92.979 90.148,78.949 			"/>
		</g>
		<g>
			<polygon fill="#E45D82" points="90.148,136.938 20,150.968 20,122.908 90.148,108.88 			"/>
		</g>
	</g>
	<g>
		<path fill="#6877B2" d="M157.922,62.68c0,1.653-2.425,5.842-3.528,5.842c-1.653,0-5.732-4.188-14.44-4.188
			c-8.268,0-14.22,4.409-14.22,12.457c0,8.047,7.055,10.141,14.992,13.118c9.811,3.748,20.834,8.157,20.834,23.149
			c0,13.228-9.59,21.385-24.471,21.385c-12.897,0-22.819-5.071-22.819-8.047c0-1.764,2.646-5.953,3.858-5.953
			c1.434,0,7.606,5.622,18.961,5.622c8.377,0,14.44-5.181,14.44-13.007c0-8.819-8.157-11.685-16.645-14.992
			c-9.37-3.637-19.181-7.275-19.181-21.716c0-11.905,9.701-20.393,24.472-20.393C146.458,55.955,157.922,58.711,157.922,62.68z"/>
		<path fill="#6877B2" d="M183.606,53.31v65.037c0,6.614,2.756,8.158,5.952,8.158c3.197,0,3.748-0.552,4.74-0.552
			c1.543,0,2.315,4.3,2.315,5.181c0,2.978-5.071,3.308-8.047,3.308c-5.512,0-14.22-2.425-14.22-15.212V53.31
			c0-1.543,1.322-2.425,4.409-2.425h0.441C182.283,50.885,183.606,51.767,183.606,53.31z"/>
		<path fill="#6877B2" d="M249.304,92.773v24.693c0,9.039,1.323,13.337,1.323,13.89c0,2.094-4.52,2.534-5.953,2.534
			c-2.646,0-3.197-4.629-3.858-7.716c-4.189,4.629-10.251,8.268-18.519,8.268c-10.692,0-18.85-5.181-18.85-16.534
			c0-18.63,19.731-19.843,36.597-20.063v-5.181c0-4.961-2.976-9.26-12.126-9.26c-10.031,0-16.094,4.63-17.196,4.63
			c-1.543,0-3.858-4.299-3.858-5.512c0-2.866,9.701-7.055,20.724-7.055C241.257,75.466,249.304,81.86,249.304,92.773z
			 M213.368,117.354c0,5.843,3.197,9.04,9.37,9.04c8.047,0,12.897-3.638,17.307-7.606v-13.007
			C228.58,105.892,213.368,105.892,213.368,117.354z"/>
		<path fill="#6877B2" d="M311.255,93.325v38.25c0,1.543-1.323,2.426-4.41,2.426h-0.441c-3.086,0-4.409-0.883-4.409-2.426V94.207
			c0-6.725-4.079-10.693-11.244-10.693c-4.96,0-10.251,2.976-13.889,7.716v40.345c0,1.543-1.323,2.426-4.409,2.426h-0.441
			c-3.086,0-4.409-0.883-4.409-2.426V92.884c0-9.039-1.323-13.338-1.323-13.89c0-2.094,4.52-2.535,5.953-2.535
			c2.646,0,3.197,4.409,3.858,7.275c4.63-5.181,11.023-8.268,17.196-8.268C304.531,75.466,311.255,82.191,311.255,93.325z"/>
		<path fill="#6877B2" d="M340.576,64.553v11.575h9.259c1.543,0,2.205,0.992,2.205,3.307v1.323c0,2.315-0.661,3.307-2.205,3.307
			h-9.259v34.282c0,6.614,2.756,8.158,5.952,8.158c3.197,0,3.748-0.552,4.74-0.552c1.543,0,2.315,4.3,2.315,5.181
			c0,2.978-5.071,3.308-8.047,3.308c-5.512,0-14.22-2.425-14.22-15.212V84.065h-5.512c-1.543,0-2.205-0.992-2.205-3.307v-1.323
			c0-2.315,0.662-3.307,2.205-3.307h5.512l1.322-11.575c0.111-1.543,1.213-2.425,3.528-2.425h1.102
			C339.583,62.128,340.576,63.01,340.576,64.553z"/>
		<path fill="#6877B2" d="M411.675,104.237c0,1.323-2.314,4.52-3.637,4.52h-34.834c0.882,12.236,6.062,17.748,16.976,17.748
			c9.591,0,14.992-4.63,16.095-4.63c1.543,0,3.858,4.299,3.858,5.512c0,2.646-8.709,7.055-19.842,7.055
			c-18.298,0-27.007-9.369-27.007-29.103c0-19.51,8.819-29.873,25.685-29.873C404.069,75.466,411.675,85.498,411.675,104.237z
			 M373.204,100.82h28.661c0-11.575-4.41-17.417-13.228-17.417C379.046,83.403,373.976,89.246,373.204,100.82z"/>
		<path fill="#6877B2" d="M469.767,53.31v64.156c0,9.039,1.323,13.337,1.323,13.89c0,2.094-4.52,2.534-5.952,2.534
			c-2.646,0-3.198-4.629-3.86-7.716c-5.399,5.622-11.242,8.268-17.525,8.268c-13.229,0-21.386-12.346-21.386-29.432
			c0-19.181,9.26-29.543,22.377-29.543c6.834,0,11.465,2.315,15.764,5.623V53.31c0-1.543,1.323-2.425,4.409-2.425h0.44
			C468.443,50.885,469.767,51.767,469.767,53.31z M432.067,104.128c0,14.219,4.85,22.267,13.558,22.267
			c4.851,0,10.362-2.646,14.882-7.606V88.584c-3.968-3.307-8.599-4.96-13.559-4.96C437.027,83.845,432.067,91.01,432.067,104.128z"
			/>
		<path fill="#6877B2" d="M525.764,58.821v66.582h30.314c1.542,0,2.203,0.991,2.203,3.306v1.765c0,2.314-0.661,3.307-2.203,3.307
			h-36.709c-2.315,0-3.308-0.992-3.308-3.307V58.821c0-1.543,1.323-2.425,4.409-2.425h0.883
			C524.44,56.396,525.764,57.278,525.764,58.821z"/>
		<path fill="#6877B2" d="M609.98,92.773v24.693c0,9.039,1.323,13.337,1.323,13.89c0,2.094-4.521,2.534-5.954,2.534
			c-2.645,0-3.196-4.629-3.857-7.716c-4.188,4.629-10.252,8.268-18.52,8.268c-10.693,0-18.851-5.181-18.851-16.534
			c0-18.63,19.733-19.843,36.599-20.063v-5.181c0-4.961-2.977-9.26-12.125-9.26c-10.033,0-16.095,4.63-17.196,4.63
			c-1.545,0-3.86-4.299-3.86-5.512c0-2.866,9.702-7.055,20.726-7.055C601.933,75.466,609.98,81.86,609.98,92.773z M574.043,117.354
			c0,5.843,3.198,9.04,9.37,9.04c8.048,0,12.897-3.638,17.308-7.606v-13.007C589.255,105.892,574.043,105.892,574.043,117.354z"/>
		<path fill="#6877B2" d="M669.726,77.781c0,0.441-0.111,0.882-0.33,1.543l-28.332,75.069c-0.659,1.654-2.534,2.315-5.181,2.315
			h-1.652c-2.425,0-3.638-0.661-3.638-1.764c0-0.221,0-0.441,0.552-1.874l9.26-22.378l-19.293-51.479
			c-0.109-0.331-0.329-0.993-0.329-1.434c0-1.102,1.434-1.874,4.739-1.874h0.883c2.203,0,3.857,0.441,4.409,1.764l11.242,29.874
			c1.323,3.637,2.537,7.606,3.529,11.133h0.22c1.102-3.417,2.315-7.715,3.638-11.133l11.023-29.874
			c0.44-1.323,2.204-1.764,4.52-1.764h0.331C668.402,75.907,669.726,76.569,669.726,77.781z"/>
		<path fill="#6877B2" d="M728.479,105.229c0,19.07-8.598,29.212-25.023,29.212c-16.645,0-25.573-10.252-25.573-29.212
			c0-19.07,9.148-29.763,25.573-29.763C719.659,75.466,728.479,86.049,728.479,105.229z M687.582,105.01
			c0,14.66,4.74,21.495,15.543,21.495c10.804,0,15.764-6.835,15.764-21.495c0-14.662-4.96-21.606-15.764-21.606
			C692.432,83.403,687.582,90.238,687.582,105.01z"/>
		<path fill="#6877B2" d="M786.459,78.333v39.133c0,9.039,1.323,13.337,1.323,13.89c0,2.094-4.52,2.534-5.952,2.534
			c-2.646,0-3.198-4.629-3.86-7.716c-4.629,5.182-11.022,8.268-17.196,8.268c-11.242,0-17.968-6.724-17.968-17.857V78.333
			c0-1.543,1.323-2.426,4.41-2.426h0.44c3.086,0,4.409,0.882,4.409,2.426v37.369c0,6.724,4.079,10.692,11.245,10.692
			c4.959,0,10.252-2.977,13.889-7.717V78.333c0-1.543,1.323-2.426,4.409-2.426h0.44C785.136,75.907,786.459,76.79,786.459,78.333z"
			/>
		<path fill="#6877B2" d="M816.992,64.553v11.575h9.26c1.544,0,2.206,0.992,2.206,3.307v1.323c0,2.315-0.662,3.307-2.206,3.307
			h-9.26v34.282c0,6.614,2.756,8.158,5.954,8.158c3.196,0,3.748-0.552,4.738-0.552c1.544,0,2.315,4.3,2.315,5.181
			c0,2.978-5.071,3.308-8.046,3.308c-5.512,0-14.22-2.425-14.22-15.212V84.065h-5.512c-1.545,0-2.206-0.992-2.206-3.307v-1.323
			c0-2.315,0.661-3.307,2.206-3.307h5.512l1.321-11.575c0.111-1.543,1.213-2.425,3.528-2.425h1.103
			C816.002,62.128,816.992,63.01,816.992,64.553z"/>
	</g>
</g>
</svg>
